<?xml version="1.0" encoding="UTF-8"?>
<!DOCTYPE svg PUBLIC "-//W3C//DTD SVG 1.1//EN" "http://www.w3.org/Graphics/SVG/1.1/DTD/svg11.dtd">
<!-- Creator: CorelDRAW 2018 (64-Bit) -->
<svg xmlns="http://www.w3.org/2000/svg" xml:space="preserve" width="297mm" height="297mm" version="1.1" shape-rendering="geometricPrecision" text-rendering="geometricPrecision" image-rendering="optimizeQuality" fill-rule="evenodd" clip-rule="evenodd"
viewBox="0 0 29700 29700"
 xmlns:xlink="http://www.w3.org/1999/xlink">
 <g id="Layer_x0020_1">
  <metadata id="CorelCorpID_0Corel-Layer"/>
  <rect fill="#6FAFAB" x="0" y="28512" width="1188" height="1188"/>
  <rect fill="#6FAFAB" x="3564" y="28512" width="1188" height="1188"/>
  <rect fill="#6FAFAB" x="7128" y="28512" width="1188" height="1188"/>
  <rect fill="#6FAFAB" x="10692" y="28512" width="1188" height="1188"/>
  <rect fill="#6FAFAB" x="14256" y="28512" width="1188" height="1188"/>
  <rect fill="#6FAFAB" x="17820" y="28512" width="1188" height="1188"/>
  <rect fill="#6FAFAB" x="21384" y="28512" width="1188" height="1188"/>
  <rect fill="#6FAFAB" x="24948" y="28512" width="1188" height="1188"/>
  <rect fill="#6FAFAB" x="28512" y="28512" width="1188" height="1188"/>
  <rect fill="#6FAFAB" x="0" y="24948" width="1188" height="1188"/>
  <rect fill="#6FAFAB" x="3564" y="24948" width="1188" height="1188"/>
  <rect fill="#6FAFAB" x="7128" y="24948" width="1188" height="1188"/>
  <rect fill="#6FAFAB" x="10692" y="24948" width="1188" height="1188"/>
  <rect fill="#6FAFAB" x="14256" y="24948" width="1188" height="1188"/>
  <rect fill="#6FAFAB" x="17820" y="24948" width="1188" height="1188"/>
  <rect fill="#6FAFAB" x="21384" y="24948" width="1188" height="1188"/>
  <rect fill="#6FAFAB" x="24948" y="24948" width="1188" height="1188"/>
  <rect fill="#6FAFAB" x="28512" y="24948" width="1188" height="1188"/>
  <rect fill="#6FAFAB" x="0" y="21384" width="1188" height="1188"/>
  <rect fill="#6FAFAB" x="3564" y="21384" width="1188" height="1188"/>
  <rect fill="#6FAFAB" x="7128" y="21384" width="1188" height="1188"/>
  <rect fill="#6FAFAB" x="10692" y="21384" width="1188" height="1188"/>
  <rect fill="#6FAFAB" x="14256" y="21384" width="1188" height="1188"/>
  <rect fill="#6FAFAB" x="17820" y="21384" width="1188" height="1188"/>
  <rect fill="#6FAFAB" x="21384" y="21384" width="1188" height="1188"/>
  <rect fill="#6FAFAB" x="24948" y="21384" width="1188" height="1188"/>
  <rect fill="#6FAFAB" x="28512" y="21384" width="1188" height="1188"/>
  <rect fill="#6FAFAB" x="0" y="17820" width="1188" height="1188"/>
  <rect fill="#6FAFAB" x="3564" y="17820" width="1188" height="1188"/>
  <rect fill="#6FAFAB" x="7128" y="17820" width="1188" height="1188"/>
  <rect fill="#6FAFAB" x="10692" y="17820" width="1188" height="1188"/>
  <rect fill="#6FAFAB" x="14256" y="17820" width="1188" height="1188"/>
  <rect fill="#6FAFAB" x="17820" y="17820" width="1188" height="1188"/>
  <rect fill="#6FAFAB" x="21384" y="17820" width="1188" height="1188"/>
  <rect fill="#6FAFAB" x="24948" y="17820" width="1188" height="1188"/>
  <rect fill="#6FAFAB" x="28512" y="17820" width="1188" height="1188"/>
  <rect fill="#6FAFAB" x="0" y="14256" width="1188" height="1188"/>
  <rect fill="#6FAFAB" x="3564" y="14256" width="1188" height="1188"/>
  <rect fill="#6FAFAB" x="7128" y="14256" width="1188" height="1188"/>
  <rect fill="#6FAFAB" x="10692" y="14256" width="1188" height="1188"/>
  <rect fill="#6FAFAB" x="14256" y="14256" width="1188" height="1188"/>
  <rect fill="#6FAFAB" x="17820" y="14256" width="1188" height="1188"/>
  <rect fill="#6FAFAB" x="21384" y="14256" width="1188" height="1188"/>
  <rect fill="#6FAFAB" x="24948" y="14256" width="1188" height="1188"/>
  <rect fill="#6FAFAB" x="28512" y="14256" width="1188" height="1188"/>
  <rect fill="#6FAFAB" x="0" y="10692" width="1188" height="1188"/>
  <rect fill="#6FAFAB" x="3564" y="10692" width="1188" height="1188"/>
  <rect fill="#6FAFAB" x="7128" y="10692" width="1188" height="1188"/>
  <rect fill="#6FAFAB" x="10692" y="10692" width="1188" height="1188"/>
  <rect fill="#6FAFAB" x="14256" y="10692" width="1188" height="1188"/>
  <rect fill="#6FAFAB" x="17820" y="10692" width="1188" height="1188"/>
  <rect fill="#6FAFAB" x="21384" y="10692" width="1188" height="1188"/>
  <rect fill="#6FAFAB" x="24948" y="10692" width="1188" height="1188"/>
  <rect fill="#6FAFAB" x="28512" y="10692" width="1188" height="1188"/>
  <rect fill="#6FAFAB" x="0" y="7128" width="1188" height="1188"/>
  <rect fill="#6FAFAB" x="3564" y="7128" width="1188" height="1188"/>
  <rect fill="#6FAFAB" x="7128" y="7128" width="1188" height="1188"/>
  <rect fill="#6FAFAB" x="10692" y="7128" width="1188" height="1188"/>
  <rect fill="#6FAFAB" x="14256" y="7128" width="1188" height="1188"/>
  <rect fill="#6FAFAB" x="17820" y="7128" width="1188" height="1188"/>
  <rect fill="#6FAFAB" x="21384" y="7128" width="1188" height="1188"/>
  <rect fill="#6FAFAB" x="24948" y="7128" width="1188" height="1188"/>
  <rect fill="#6FAFAB" x="28512" y="7128" width="1188" height="1188"/>
  <rect fill="#6FAFAB" x="0" y="3564" width="1188" height="1188"/>
  <rect fill="#6FAFAB" x="3564" y="3564" width="1188" height="1188"/>
  <rect fill="#6FAFAB" x="7128" y="3564" width="1188" height="1188"/>
  <rect fill="#6FAFAB" x="10692" y="3564" width="1188" height="1188"/>
  <rect fill="#6FAFAB" x="14256" y="3564" width="1188" height="1188"/>
  <rect fill="#6FAFAB" x="17820" y="3564" width="1188" height="1188"/>
  <rect fill="#6FAFAB" x="21384" y="3564" width="1188" height="1188"/>
  <rect fill="#6FAFAB" x="24948" y="3564" width="1188" height="1188"/>
  <rect fill="#6FAFAB" x="28512" y="3564" width="1188" height="1188"/>
  <rect fill="#6FAFAB" x="0" y="0" width="1188" height="1188"/>
  <rect fill="#6FAFAB" x="3564" y="0" width="1188" height="1188"/>
  <rect fill="#6FAFAB" x="7128" y="0" width="1188" height="1188"/>
  <rect fill="#6FAFAB" x="10692" y="0" width="1188" height="1188"/>
  <rect fill="#6FAFAB" x="14256" y="0" width="1188" height="1188"/>
  <rect fill="#6FAFAB" x="17820" y="0" width="1188" height="1188"/>
  <rect fill="#6FAFAB" x="21384" y="0" width="1188" height="1188"/>
  <rect fill="#6FAFAB" x="24948" y="0" width="1188" height="1188"/>
  <rect fill="#6FAFAB" x="28512" y="0" width="1188" height="1188"/>
 </g>
</svg>
